<?xml version="1.0" standalone="no"?>
<!DOCTYPE svg PUBLIC "-//W3C//DTD SVG 20010904//EN"
 "http://www.w3.org/TR/2001/REC-SVG-20010904/DTD/svg10.dtd">
<svg version="1.0" xmlns="http://www.w3.org/2000/svg"
 width="579.000000pt" height="558.000000pt" viewBox="0 0 579.000000 558.000000"
 preserveAspectRatio="xMidYMid meet">

<g transform="translate(0.000000,558.000000) scale(0.100000,-0.100000)"
fill="#000000" stroke="none">
<path d="M0 2790 l0 -2790 2895 0 2895 0 0 2790 0 2790 -1410 0 c-775 0 -1410
-3 -1410 -8 0 -4 9 -13 21 -20 14 -9 20 -21 17 -36 -4 -18 -1 -22 13 -19 21 6
88 -14 109 -32 15 -14 70 -9 70 5 0 13 54 19 69 7 12 -10 13 -8 9 11 -10 38
22 23 59 -28 18 -25 44 -58 58 -74 14 -16 25 -31 25 -35 0 -3 9 -12 20 -19 11
-7 20 -8 20 -3 0 6 -4 13 -10 16 -5 3 -10 16 -10 28 1 22 1 22 21 -2 26 -32
37 -18 15 19 l-17 30 28 -12 c50 -21 129 -111 152 -174 12 -32 20 -68 17 -80
-3 -12 -1 -24 5 -26 6 -2 19 -37 29 -78 10 -41 22 -74 28 -73 13 3 21 -53 32
-216 5 -74 13 -137 18 -140 21 -14 30 -117 12 -135 -6 -6 -10 -21 -9 -35 0
-23 1 -24 8 -6 l8 20 5 -20 c2 -11 8 31 12 93 14 189 27 113 17 -98 -7 -166
-6 -199 7 -225 10 -20 11 -30 3 -33 -6 -2 -11 -12 -11 -23 0 -10 -3 -19 -7
-19 -5 0 -6 -22 -5 -50 2 -27 8 -50 13 -50 12 0 12 -43 0 -56 -5 -5 -12 -26
-15 -46 -7 -36 -5 -38 31 -55 23 -11 40 -27 44 -43 l6 -25 10 25 c6 14 13 34
16 45 4 11 4 3 1 -17 -3 -21 -14 -64 -25 -95 l-19 -58 4 50 5 50 -14 -43 c-8
-23 -28 -67 -44 -96 -17 -29 -31 -60 -31 -68 0 -7 -9 -31 -19 -52 -23 -45 -54
-191 -49 -232 2 -16 8 -28 15 -27 14 3 35 -61 27 -82 -9 -23 14 -26 51 -5 26
15 37 17 40 8 6 -16 2 -39 -8 -55 -5 -7 1 -17 14 -23 15 -8 19 -9 15 -1 -4 6
-2 11 4 11 6 0 8 5 4 11 -4 8 0 8 15 0 25 -14 28 -23 4 -15 -15 5 -15 4 -4 -4
10 -7 21 -7 34 0 14 7 17 7 13 -1 -4 -6 0 -11 8 -11 9 0 13 -6 10 -14 -3 -9 2
-13 17 -12 17 1 23 -5 24 -22 2 -24 20 -42 43 -42 6 0 12 -4 12 -10 0 -5 13
-10 28 -10 16 0 37 -9 47 -20 14 -16 31 -20 79 -20 61 0 156 -26 156 -43 0 -5
-6 -7 -13 -4 -8 3 -20 1 -28 -4 -12 -8 -12 -10 0 -18 11 -7 11 -9 0 -14 -8 -3
25 -6 73 -6 104 -1 187 -27 208 -66 7 -14 19 -25 26 -25 16 0 44 -51 44 -79 0
-15 14 -25 58 -41 31 -12 81 -35 111 -51 30 -16 61 -29 68 -29 7 0 13 -6 13
-12 0 -7 38 -43 85 -81 47 -37 85 -72 85 -77 0 -5 -39 4 -87 21 -99 33 -104
34 -97 15 3 -8 30 -27 61 -42 64 -33 97 -68 130 -141 20 -44 29 -53 51 -54 25
0 25 -1 6 -9 -25 -10 -38 -38 -25 -54 6 -6 6 -17 2 -25 -6 -10 -12 -9 -26 5
-19 20 -65 28 -65 12 0 -5 9 -12 20 -15 15 -4 20 -14 20 -39 0 -33 20 -63 93
-135 15 -15 27 -32 27 -38 0 -6 -13 3 -29 21 -34 38 -51 34 -20 -5 11 -15 17
-31 14 -37 -3 -5 3 -10 15 -10 12 0 19 -4 16 -8 -3 -5 3 -18 13 -28 39 -42 55
-75 41 -84 -7 -4 -9 -13 -5 -20 4 -6 -1 -17 -11 -25 -19 -14 -11 -20 21 -16 6
0 9 -32 7 -87 -2 -48 1 -112 7 -142 15 -73 13 -185 -4 -224 -13 -30 -13 -30
-14 34 -2 75 -19 64 -25 -16 -2 -26 -8 -49 -12 -53 -5 -3 -9 -26 -9 -51 -1
-58 -68 -202 -90 -194 -9 4 -15 0 -15 -7 -1 -10 -5 -9 -14 4 -17 22 -22 22
-29 -5 -4 -12 -9 -19 -12 -16 -4 4 -15 -1 -26 -10 -13 -11 -17 -24 -13 -41 4
-20 3 -23 -5 -11 -9 13 -11 12 -11 -3 0 -10 -4 -16 -9 -12 -6 3 -15 -5 -22
-17 -7 -13 -27 -38 -46 -55 -32 -31 -39 -33 -107 -33 -74 0 -74 0 -146 -57
-15 -13 -34 -23 -42 -23 -8 0 -19 -5 -26 -12 -8 -8 -15 -8 -24 -1 -7 6 -31 10
-53 8 -22 -1 -34 -1 -27 2 10 4 9 9 -4 24 -19 21 -106 27 -134 9 -10 -6 -11
-10 -2 -10 6 0 12 -4 12 -10 0 -5 -14 -10 -31 -10 -17 0 -28 4 -24 10 4 6 -22
10 -70 10 -54 0 -77 -4 -81 -13 -3 -9 -19 -13 -44 -12 -28 1 -40 -2 -40 -12 0
-19 -69 -17 -76 2 -7 17 -84 22 -84 5 0 -5 -18 -10 -40 -10 -22 0 -40 4 -40 9
0 5 -35 12 -77 16 -43 4 -80 10 -83 14 -14 20 -101 51 -141 50 -45 -1 -99 14
-99 28 0 9 -48 33 -67 33 -7 0 -13 6 -13 14 0 9 -12 16 -32 18 -23 2 -36 10
-45 28 -7 13 -18 29 -26 35 -31 23 -51 95 -26 95 8 0 10 17 6 57 -5 52 -20 78
-38 67 -4 -2 -10 0 -14 5 -3 6 6 18 20 27 31 20 68 91 53 100 -6 4 -14 0 -19
-7 -6 -11 -9 -10 -15 5 -4 11 1 28 15 46 11 16 21 32 21 35 0 3 9 16 20 28 12
12 23 32 26 44 4 13 10 23 15 23 9 0 53 79 44 81 -3 1 -8 2 -12 3 -5 1 -13 5
-20 9 -7 4 -16 0 -21 -10 -8 -14 -13 -15 -25 -5 -12 10 -23 8 -55 -9 -23 -12
-39 -25 -37 -28 2 -4 -9 -22 -25 -41 l-29 -35 -116 -3 c-114 -4 -117 -3 -179
29 -58 30 -67 32 -92 20 -27 -12 -28 -13 -9 -23 32 -17 55 -46 55 -68 0 -11 4
-20 8 -20 10 0 13 -29 5 -50 -16 -44 -11 -58 32 -89 24 -17 48 -31 53 -31 6 0
13 -6 15 -12 4 -10 8 -9 16 2 9 13 11 13 11 -2 0 -10 -4 -18 -10 -18 -5 0 -10
-4 -10 -10 0 -5 5 -9 11 -7 6 1 14 -4 16 -10 3 -7 1 -13 -4 -13 -5 0 -8 -13
-5 -30 3 -18 0 -30 -7 -30 -6 0 -11 5 -11 11 0 5 -6 7 -12 3 -7 -5 -21 -9 -31
-9 -9 -1 -30 -14 -45 -28 -16 -15 -38 -27 -50 -27 -11 0 -44 -13 -72 -30 -28
-16 -57 -30 -65 -30 -7 0 -24 -17 -36 -37 -13 -21 -27 -39 -31 -41 -4 -2 -3
-12 2 -22 10 -18 -10 -47 -23 -33 -9 8 -38 -17 -32 -27 8 -13 -42 -47 -95 -65
-28 -9 -52 -21 -55 -26 -4 -5 -17 -9 -31 -9 -13 0 -24 -6 -24 -12 -1 -16 -69
-47 -179 -83 -72 -23 -206 -43 -297 -45 -12 0 -38 -11 -58 -25 -49 -33 -82
-33 -90 0 -6 24 -9 25 -54 20 -94 -13 -398 41 -422 75 -3 4 -27 12 -55 19 -27
7 -55 21 -63 32 -7 10 -20 19 -28 19 -8 0 -14 4 -14 9 0 5 -8 12 -17 15 -10 3
-31 18 -46 32 -22 20 -31 24 -40 15 -9 -9 -9 -14 2 -20 7 -5 10 -14 7 -20 -4
-6 -2 -11 3 -11 6 0 11 -13 11 -29 0 -25 -5 -30 -34 -35 -37 -7 -86 7 -86 25
0 6 -23 33 -52 60 -29 27 -48 49 -43 49 5 0 -3 12 -16 28 -31 33 -69 98 -69
118 0 8 -5 14 -11 14 -5 0 -8 4 -5 9 3 4 -6 18 -19 31 -14 13 -21 28 -17 34
13 19 14 68 2 76 -14 9 -14 27 -1 145 5 49 8 101 6 115 -14 92 -15 111 -4 104
8 -4 9 1 4 17 -11 34 -8 142 5 190 6 22 26 74 45 115 19 41 31 74 28 74 -3 0
1 7 8 17 13 15 12 15 -11 3 -24 -13 -25 -12 -7 7 24 28 21 40 -5 17 l-23 -19
18 22 c11 12 25 19 33 16 8 -3 14 0 14 6 0 6 -4 11 -10 11 -5 0 -10 7 -10 16
0 8 4 12 10 9 5 -3 10 -2 10 4 0 5 3 17 7 27 5 13 3 15 -8 9 -8 -5 2 11 21 35
l35 45 -29 -19 c-27 -17 -29 -17 -22 -1 5 14 4 16 -7 6 -11 -9 -17 -7 -28 6
-11 14 -12 15 0 9 10 -6 12 -4 7 11 -5 15 3 26 32 47 48 33 104 92 80 83 -12
-4 -15 -2 -11 9 3 7 0 14 -6 14 -15 0 -14 19 1 33 7 7 37 32 66 56 35 29 49
47 42 51 -7 4 0 7 15 7 15 1 39 9 53 20 40 28 89 46 112 40 11 -3 20 -2 20 2
0 5 10 13 23 19 20 9 19 10 -10 7 -18 -2 -33 1 -33 6 0 5 5 9 11 9 5 0 7 5 4
11 -9 13 -82 4 -101 -12 -8 -6 -14 -8 -14 -5 0 4 -9 2 -20 -4 -17 -9 -19 -8
-13 7 12 35 46 63 67 57 15 -4 17 -3 8 4 -11 7 -1 17 40 40 29 16 63 33 74 36
12 4 30 16 40 28 l19 21 -33 -17 c-19 -10 -36 -16 -38 -13 -7 7 117 68 127 62
5 -4 9 -2 9 3 0 5 9 12 20 15 11 3 20 10 20 16 0 18 -47 13 -91 -9 -22 -12
-52 -25 -67 -30 -26 -10 -26 -9 7 19 20 18 40 27 49 24 9 -4 13 -2 9 4 -3 5
24 25 61 44 60 30 64 34 42 40 -23 6 -22 7 10 11 l35 4 -33 9 c-42 10 -33 18
48 44 74 23 62 28 -18 7 -28 -8 -50 -11 -47 -6 9 14 89 47 134 55 27 4 39 10
31 15 -7 4 7 8 31 8 82 1 164 14 188 29 l25 16 -23 18 c-20 17 -21 20 -6 25
13 5 14 9 3 15 -8 6 -2 9 20 9 18 0 31 -3 29 -7 -3 -5 9 -8 26 -8 18 -1 41 -2
52 -4 48 -8 85 -1 85 16 0 9 3 13 7 10 12 -12 33 15 32 42 0 23 -1 24 -9 6 -7
-15 -8 -10 -8 23 1 23 5 42 9 42 4 0 9 9 11 21 l3 20 23 -21 c27 -26 29 -11 6
56 -14 42 -14 49 1 81 16 33 16 40 1 102 -18 75 -21 135 -6 126 6 -3 14 4 19
17 6 13 10 17 10 10 1 -6 6 -11 13 -10 6 2 20 -26 30 -61 11 -34 22 -61 25
-58 2 3 -2 29 -10 59 -28 98 -38 163 -42 284 -2 65 -11 144 -19 174 -16 57
-13 76 8 47 20 -26 25 -21 19 18 -7 42 1 45 22 8 l16 -28 -6 35 c-10 64 -13
78 -29 109 -20 37 -21 82 -3 75 10 -3 11 14 6 83 -4 53 -3 94 3 103 8 12 9 12
4 -2 -3 -10 -1 -20 3 -23 10 -5 20 34 13 53 -2 7 -8 10 -13 6 -5 -3 -9 -1 -9
5 0 5 5 11 10 13 10 3 44 212 52 320 4 46 2 55 -8 47 -7 -6 -15 -20 -17 -32
-2 -12 -3 -5 0 17 2 21 9 48 15 60 7 11 11 27 10 34 -2 6 1 12 7 12 5 0 12 -6
14 -12 3 -7 6 14 6 47 1 85 57 191 89 171 5 -3 19 15 31 40 32 64 62 96 131
139 33 21 60 42 60 46 0 5 11 9 24 9 37 0 86 12 81 20 -4 6 10 10 48 11 13 0
16 5 12 19 -8 25 45 56 64 37 8 -8 19 -8 44 1 18 7 49 12 68 12 61 1 112 18
143 49 l31 31 -1483 0 -1482 0 0 -2790z m3847 1743 c-3 -10 -5 -4 -5 12 0 17
2 24 5 18 2 -7 2 -21 0 -30z m-1830 -355 c-3 -8 -6 -5 -6 6 -1 11 2 17 5 13 3
-3 4 -12 1 -19z m2957 -784 c14 -37 -9 -84 -41 -84 -18 0 -16 22 4 65 18 38
28 43 37 19z m-4353 -21 c0 -5 2 -16 4 -25 2 -12 -3 -18 -16 -18 -14 0 -19 7
-19 25 0 16 6 25 15 25 8 0 15 -3 16 -7z m4204 -67 c12 -11 8 -18 -22 -45 -19
-17 -39 -31 -43 -31 -5 0 -13 -12 -18 -27 -6 -16 -11 -21 -11 -11 -1 26 10 48
25 48 8 0 14 5 14 10 0 6 -4 10 -9 10 -5 0 -11 6 -14 14 -4 9 6 20 26 30 39
19 36 19 52 2z m-275 -65 c0 -5 12 -11 27 -13 19 -2 29 -10 34 -30 6 -24 4
-28 -14 -30 -58 -4 -62 -3 -62 17 0 11 -4 23 -8 26 -10 7 2 39 14 39 5 0 9 -4
9 -9z m165 -31 c-3 -5 -15 -10 -26 -10 -10 0 -19 5 -19 10 0 6 12 10 26 10 14
0 23 -4 19 -10z m-3895 -51 c0 -27 2 -29 28 -23 15 4 28 8 30 10 2 1 35 -8 73
-21 56 -19 83 -23 141 -19 39 3 75 7 80 10 4 3 13 2 19 -2 8 -4 7 -9 -2 -15
-10 -6 -7 -9 11 -9 20 0 22 -2 10 -10 -12 -8 -12 -10 5 -10 19 -1 19 -1 1 -12
-14 -8 -24 -8 -36 0 -13 8 -23 7 -40 -5 -18 -13 -40 -15 -119 -10 -53 4 -97
11 -99 17 -2 5 -29 10 -60 10 -66 0 -104 9 -96 21 3 5 1 9 -5 9 -5 0 -12 9
-16 20 -4 14 3 28 25 50 36 35 50 32 50 -11z m500 -1 c0 -9 4 -8 10 2 8 12 10
11 10 -8 0 -32 -33 -64 -62 -60 -19 2 -22 8 -19 33 1 17 8 33 15 37 18 12 46
9 46 -4z m250 -168 c-20 -5 -39 -5 -44 1 -6 5 7 9 35 8 l44 -1 -35 -8z m3997
-696 c-3 -3 -12 -4 -19 -1 -8 3 -5 6 6 6 11 1 17 -2 13 -5z m-54 -11 c-7 -2
-19 -2 -25 0 -7 3 -2 5 12 5 14 0 19 -2 13 -5z m-261 -403 c22 -39 15 -39 -12
0 -12 17 -18 30 -13 30 4 0 16 -14 25 -30z m62 -171 c-3 -5 -10 -7 -15 -3 -5
3 -7 10 -3 15 3 5 10 7 15 3 5 -3 7 -10 3 -15z m36 11 c0 -5 -4 -10 -10 -10
-5 0 -10 5 -10 10 0 6 5 10 10 10 6 0 10 -4 10 -10z m-2078 -322 c-8 -8 -9 -4
-5 13 4 13 8 18 11 10 2 -7 -1 -18 -6 -23z m-2533 -642 c-3 -3 -11 5 -18 17
-13 21 -12 21 5 5 10 -10 16 -20 13 -22z m3825 -82 c3 -8 2 -12 -4 -9 -6 3
-10 10 -10 16 0 14 7 11 14 -7z m-4 -34 c19 -22 38 -40 42 -40 7 0 128 -119
128 -126 0 -10 -50 31 -110 91 -36 36 -70 65 -77 65 -11 0 -33 30 -33 44 0 15
19 2 50 -34z m-2160 20 c0 -5 -7 -10 -16 -10 -8 0 -12 5 -9 10 3 6 10 10 16
10 5 0 9 -4 9 -10z m-1490 -45 c20 -24 6 -28 -15 -5 -10 11 -13 20 -8 20 6 0
16 -7 23 -15z m46 -4 c0 -15 -3 -17 -13 -9 -7 6 -10 14 -7 19 9 15 20 10 20
-10z m574 -115 c0 -3 -4 -8 -10 -11 -5 -3 -10 -1 -10 4 0 6 5 11 10 11 6 0 10
-2 10 -4z m2627 -52 c-3 -3 -12 -4 -19 -1 -8 3 -5 6 6 6 11 1 17 -2 13 -5z
m-2836 -27 c-8 -8 -14 -8 -22 0 -6 6 -19 9 -28 6 -12 -4 -13 -3 -3 5 19 13 67
3 53 -11z m1004 -57 c-3 -5 -16 -10 -28 -9 -20 1 -20 2 3 9 14 4 26 8 28 9 2
1 0 -3 -3 -9z m-115 -36 c0 -2 -11 -4 -25 -4 -14 0 -25 4 -25 9 0 4 11 6 25 3
14 -2 25 -6 25 -8z"/>
<path d="M2976 5481 c-4 -7 -5 -15 -2 -18 9 -9 19 4 14 18 -4 11 -6 11 -12 0z"/>
<path d="M2576 5404 c-9 -24 -7 -27 9 -10 17 17 19 26 6 26 -5 0 -12 -7 -15
-16z"/>
<path d="M2045 3911 c-3 -5 -1 -12 5 -16 5 -3 10 1 10 9 0 18 -6 21 -15 7z"/>
<path d="M2100 3838 c0 -9 5 -20 10 -23 13 -8 13 5 0 25 -8 13 -10 13 -10 -2z"/>
<path d="M2075 3820 c3 -5 8 -10 11 -10 2 0 4 5 4 10 0 6 -5 10 -11 10 -5 0
-7 -4 -4 -10z"/>
<path d="M1493 2893 c9 -2 25 -2 35 0 9 3 1 5 -18 5 -19 0 -27 -2 -17 -5z"/>
<path d="M1448 2883 c7 -3 16 -2 19 1 4 3 -2 6 -13 5 -11 0 -14 -3 -6 -6z"/>
<path d="M1408 2843 c6 -2 18 -2 25 0 6 3 1 5 -13 5 -14 0 -19 -2 -12 -5z"/>
<path d="M1420 2660 c-9 -6 -11 -10 -3 -10 7 0 10 -7 7 -15 -5 -12 3 -15 35
-15 40 0 40 1 29 25 -12 26 -41 33 -68 15z"/>
<path d="M992 2504 c-7 -8 -8 -14 -3 -14 10 0 25 19 20 25 -2 1 -10 -3 -17
-11z"/>
<path d="M809 1766 c-33 -33 -92 -146 -76 -146 7 0 18 15 26 33 8 17 26 50 40
72 50 75 52 83 10 41z"/>
<path d="M5080 1710 l-35 -7 35 -2 c19 0 42 4 50 9 13 9 13 10 0 9 -8 -1 -31
-5 -50 -9z"/>
<path d="M3307 1622 c58 -19 63 -23 67 -48 4 -26 23 -29 35 -6 8 15 7 22 -2
29 -23 18 -97 43 -125 42 -21 -1 -15 -5 25 -17z"/>
<path d="M695 1617 c-4 -10 -5 -21 -1 -24 10 -10 18 4 13 24 -4 17 -4 17 -12
0z"/>
<path d="M3507 1624 c-3 -5 1 -15 9 -22 16 -14 18 -5 5 17 -5 7 -11 9 -14 5z"/>
<path d="M2683 1610 c-13 -5 -23 -12 -23 -15 0 -10 27 -5 46 10 21 16 11 18
-23 5z"/>
<path d="M4468 1603 c7 -3 16 -2 19 1 4 3 -2 6 -13 5 -11 0 -14 -3 -6 -6z"/>
<path d="M4408 1593 c7 -3 16 -2 19 1 4 3 -2 6 -13 5 -11 0 -14 -3 -6 -6z"/>
<path d="M2560 1561 c0 -12 8 -16 41 -25 21 -5 28 -2 32 14 4 17 0 20 -34 20
-21 0 -39 -4 -39 -9z"/>
<path d="M3280 1550 c0 -5 7 -10 16 -10 8 0 12 5 9 10 -3 6 -10 10 -16 10 -5
0 -9 -4 -9 -10z"/>
<path d="M4321 1276 c2 -2 90 -7 194 -10 105 -4 200 -10 213 -13 12 -3 34 -2
50 3 l27 7 -30 7 c-30 8 -462 13 -454 6z"/>
<path d="M5120 1236 c0 -11 9 -16 30 -16 17 0 30 5 30 10 0 6 -6 10 -14 10 -8
0 -21 3 -30 6 -11 4 -16 1 -16 -10z"/>
<path d="M4692 878 c-16 -16 -15 -33 1 -19 8 6 17 8 21 4 4 -4 4 0 0 10 -7 20
-7 20 -22 5z"/>
<path d="M4640 809 c0 -5 5 -7 10 -4 6 3 10 8 10 11 0 2 -4 4 -10 4 -5 0 -10
-5 -10 -11z"/>
</g>
</svg>
